<svg id="Capa_1" data-name="Capa 1" xmlns="http://www.w3.org/2000/svg" width="32" height="32" viewBox="0 0 32 32"><defs><style>.cls-1{fill:#002362;}</style></defs><title>icono-tu-cuenta</title><path class="cls-1" d="M9,25.1a11.38,11.38,0,0,0,6.42,2.38h1.23A11.37,11.37,0,0,0,23.11,25L23.19,25A11.5,11.5,0,1,0,8.91,25ZM21.8,24a9.82,9.82,0,0,1-4.74,1.83H16.74l-0.29,0H15.56l-0.28,0H15.12l-0.17,0-0.19,0h0A9.82,9.82,0,0,1,10.28,24V22.57a5.75,5.75,0,0,1,2.43-4.7,5.4,5.4,0,0,0,6.65,0,5.75,5.75,0,0,1,2.43,4.7V24h0ZM6.13,16a9.87,9.87,0,1,1,17.3,6.5,7.38,7.38,0,0,0-2.93-5.82,5.38,5.38,0,0,0,1-3.08,5.47,5.47,0,0,0-.06-0.8,0.81,0.81,0,0,0-1.61.24,3.85,3.85,0,0,1,0,.56,3.77,3.77,0,0,1-.74,2.24A3.81,3.81,0,0,1,17.64,17a3.78,3.78,0,0,1-3.2,0A3.81,3.81,0,0,1,13,15.85a3.79,3.79,0,0,1,3.05-6,3.81,3.81,0,0,1,.85.1,0.81,0.81,0,0,0,.36-1.58,5.42,5.42,0,0,0-6.63,5.28,5.38,5.38,0,0,0,1,3.08,7.38,7.38,0,0,0-2.93,5.89v0A9.83,9.83,0,0,1,6.13,16Z"/></svg>